<?xml version="1.0" encoding="UTF-8"?>
<svg id="Calque_2" data-name="Calque 2" xmlns="http://www.w3.org/2000/svg" viewBox="0 0 206.33 328.32">
  <defs>
    <style>
      .cls-1 {
        fill: #000;
        stroke-width: 0px;
      }
    </style>
  </defs>
  <g id="Calque_1-2" data-name="Calque 1">
    <path id="pm" class="cls-1" d="M120.71,201.58s-45.67,96.75-48.7,107.63h-.62c-3.39-12.15-42.17-94.79-44.99-100.82,1.88.2,3.89.33,6.03.4,2.2.07,4.44.1,6.72.1,9.92,0,18.7-1,26.35-3,7.65-2,14.12-4.86,19.43-8.58,2.78-1.95,5.2-4.13,7.28-6.52-3.8-1.75-20.32-11.89-21.4-12.76-1.04,1.25-2.29,2.39-3.76,3.42-2.82,1.96-6.55,3.5-11.16,4.6-4.62,1.1-10.33,1.65-17.16,1.65-2.41,0-4.74-.05-6.98-.16-2.24-.1-4.08-.26-5.53-.46v-39.68c-7.54-6.42-15.27-14.76-20.66-23.26H.91v138.28h0v52.88h25.32v-39.17c0-3.57-.03-8.58-.08-13.71h.08v-21.18c4.1,9.26,45.46,87.06,45.46,87.06,0,0,44.83-83.9,46-87.83,0,0-.31,25.49-.31,35.76v39.07h25.32v-107.28l-21.99-6.46Z"/>
    <path id="hat" class="cls-1" d="M203.22,89.04c3.36-5.13,6.99-16.49-6.47-34.97-8.14-11.18-20.88-22.74-35.88-32.57C140.33,8.04,118.87,0,103.48,0c-12.11,0-18.16,4.9-21.15,9.19l-34.32,45.73c-21.2-3.97-36.68-.19-43.92,10.86-16.48,25.14,19.32,67.41,63.2,96.16,28.63,18.77,61.17,32.08,84.9,32.08,12.63,0,22.77-3.77,28.5-12.51,7.85-11.97,4.13-29.03-10.39-48.57l31.76-42.32c.44-.53.82-1.06,1.16-1.58ZM97.9,20.07c.27-.28,1.88-1.07,5.58-1.07,11.49,0,29.92,7.22,46.97,18.39,12.5,8.19,23.17,17.67,30.05,26.68,6.71,8.8,7.09,13.68,6.86,14.47l-.07.09c-.37.31-1.98,1.03-5.53,1.03-11.49,0-29.92-7.22-46.97-18.39-12.5-8.19-23.17-17.67-30.05-26.68-6.83-8.95-7.1-13.86-6.85-14.51ZM84.33,38.18c1.16,2.03,2.54,4.17,4.17,6.41,8.14,11.18,20.88,22.75,35.88,32.58,16.82,11.02,34.25,18.4,48.46,20.71l-28.55,38.03c-4.36,1.4-23.87-2.14-50.92-19.86-26.75-17.53-37.84-33.85-38.52-38.61l29.47-39.26ZM164.79,171.1c-2.31,3.52-11.74,5.5-27.59,1.97-17.84-3.97-38.97-13.57-59.5-27.02-20.53-13.45-37.76-29-48.52-43.77-9.56-13.13-11.51-22.56-9.2-26.08,1.73-2.64,7.29-4.36,16.39-3.69-4.31,17.08,19.19,41.48,46.6,59.44,20.18,13.23,42.72,23.12,58.76,23.12,6.99,0,12.74-1.88,16.53-6.18,7.18,10.99,8.68,18.93,6.53,22.21Z"/>
  </g>
</svg>